<?xml version="1.0" standalone="no"?>
<!DOCTYPE svg PUBLIC "-//W3C//DTD SVG 20010904//EN"
 "http://www.w3.org/TR/2001/REC-SVG-20010904/DTD/svg10.dtd">
<svg version="1.0" xmlns="http://www.w3.org/2000/svg"
 width="512.000000pt" height="512.000000pt" viewBox="0 0 512.000000 512.000000"
 preserveAspectRatio="xMidYMid meet">
<metadata>
Created by potrace 1.11, written by Peter Selinger 2001-2013
</metadata>
<g transform="translate(0.000000,512.000000) scale(0.100000,-0.100000)"
fill="#000000" stroke="none">
<path d="M0 2560 l0 -2560 2560 0 2560 0 0 2560 0 2560 -2560 0 -2560 0 0
-2560z m3230 1805 l0 -135 -62 0 c-250 0 -417 -95 -434 -246 -3 -27 13 -234
36 -464 48 -478 52 -603 21 -702 -38 -119 -144 -208 -295 -248 l-49 -13 54
-14 c150 -37 253 -123 290 -241 31 -101 28 -221 -21 -709 -26 -267 -40 -448
-36 -476 20 -132 142 -205 384 -229 l112 -11 0 -135 0 -134 -87 7 c-209 16
-356 51 -484 116 -161 81 -239 217 -239 417 0 54 21 284 46 512 42 376 45 421
34 482 -33 189 -183 266 -545 281 l-60 2 -3 133 c-3 131 -2 132 20 132 89 1
276 23 343 40 141 36 211 102 242 226 16 63 15 74 -31 497 -60 553 -60 620 1
744 69 141 255 247 493 282 41 6 86 13 100 15 14 2 58 4 98 5 l72 1 0 -135z"/>
</g>
</svg>
