<?xml version="1.0" standalone="no"?>
<!DOCTYPE svg PUBLIC "-//W3C//DTD SVG 20010904//EN"
 "http://www.w3.org/TR/2001/REC-SVG-20010904/DTD/svg10.dtd">
<svg version="1.0" xmlns="http://www.w3.org/2000/svg"
 width="2048.000000pt" height="2048.000000pt" viewBox="0 0 2048.000000 2048.000000"
 preserveAspectRatio="xMidYMid meet">
<metadata>
Created by potrace 1.14, written by Peter Selinger 2001-2017
</metadata>
<g transform="translate(0.000000,2048.000000) scale(0.100000,-0.100000)"
fill="#000000" stroke="none">
<path d="M0 10240 l0 -10240 10240 0 10240 0 0 10240 0 10240 -10240 0 -10240
0 0 -10240z m14530 7340 l0 -580 -1527 0 c-970 0 -1571 -4 -1646 -11 -262 -23
-465 -103 -639 -253 -192 -164 -300 -442 -358 -918 -36 -307 -40 -462 -40
-1798 0 -1394 0 -1386 50 -1599 85 -363 275 -692 530 -919 360 -322 861 -550
1410 -641 149 -25 368 -51 427 -51 l43 0 0 -573 0 -573 -137 -12 c-719 -63
-1336 -316 -1769 -725 -304 -286 -490 -669 -544 -1117 -16 -133 -8 -2816 9
-2980 50 -494 126 -783 254 -970 99 -144 270 -268 457 -330 176 -58 49 -54
1838 -57 l1642 -3 0 -585 0 -585 -1482 0 c-1570 1 -1956 7 -2238 40 -1345 155
-2024 751 -2284 2005 -32 154 -62 365 -76 530 -6 72 -13 146 -16 165 -3 19 -9
638 -13 1375 -7 1198 -9 1351 -25 1445 -88 535 -311 910 -730 1225 -417 313
-951 506 -1546 560 -36 3 -86 8 -112 11 l-48 6 0 574 c0 316 2 574 4 574 2 0
72 7 157 15 765 76 1381 339 1795 767 261 269 411 585 480 1008 16 94 18 249
25 1450 4 740 10 1361 13 1380 3 19 10 94 16 165 25 303 95 663 176 915 245
761 671 1205 1394 1452 273 93 625 161 975 187 61 4 881 9 1823 10 l1712 1 0
-580z"/>
<path d="M9300 10758 c-255 -163 -693 -379 -1022 -503 -44 -16 -64 -35 -38
-35 6 0 104 -40 219 -89 320 -137 621 -292 841 -432 73 -47 75 -48 100 -31
236 158 755 418 1073 537 26 10 47 21 47 25 0 3 -37 21 -82 40 -408 165 -703
309 -955 466 -55 35 -105 64 -110 64 -4 0 -37 -19 -73 -42z"/>
</g>
</svg>
