<?xml version="1.0" standalone="no"?>
<!DOCTYPE svg PUBLIC "-//W3C//DTD SVG 20010904//EN"
 "http://www.w3.org/TR/2001/REC-SVG-20010904/DTD/svg10.dtd">
<svg version="1.0" xmlns="http://www.w3.org/2000/svg"
 width="2048.000000pt" height="2048.000000pt" viewBox="0 0 2048.000000 2048.000000"
 preserveAspectRatio="xMidYMid meet">
<metadata>
Created by potrace 1.14, written by Peter Selinger 2001-2017
</metadata>
<g transform="translate(0.000000,2048.000000) scale(0.100000,-0.100000)"
fill="#000000" stroke="none">
<path d="M0 10240 l0 -10240 10240 0 10240 0 0 10240 0 10240 -10240 0 -10240
0 0 -10240z m15268 8608 l-3 -683 -1910 -5 -1910 -6 -97 -22 c-360 -83 -632
-280 -773 -560 -77 -155 -151 -433 -190 -722 -49 -362 -48 -347 -52 -2058 -4
-1427 -2 -1627 12 -1735 87 -671 391 -1169 945 -1550 269 -184 607 -340 945
-436 272 -76 526 -120 908 -156 l67 -7 0 -668 0 -668 -67 -7 c-829 -75 -1418
-279 -1942 -672 -133 -100 -315 -273 -404 -383 -249 -309 -409 -706 -457
-1135 -8 -71 -10 -563 -7 -1700 3 -1398 6 -1621 20 -1765 84 -834 216 -1162
563 -1398 132 -90 305 -154 506 -188 95 -17 248 -18 1976 -21 l1872 -4 -2
-677 -3 -677 -1700 -3 c-2262 -4 -2504 4 -3010 94 -674 120 -1207 373 -1580
748 -459 462 -746 1200 -835 2146 -30 321 -33 467 -40 1920 -8 1584 -7 1529
-50 1746 -97 492 -352 912 -745 1230 -517 418 -1167 661 -1950 727 l-140 12 0
675 0 675 145 12 c900 77 1661 394 2145 894 264 272 426 569 521 949 71 287
67 183 74 1860 7 1456 10 1598 40 1920 102 1077 456 1874 1036 2326 484 378
1140 585 2054 647 25 2 944 4 2043 5 l1997 2 -2 -682z"/>
<path d="M9165 10874 c-233 -162 -721 -408 -1162 -585 -73 -29 -131 -54 -130
-55 1 -1 79 -33 172 -72 424 -176 842 -387 1091 -552 41 -27 79 -50 84 -50 5
0 47 24 92 54 271 176 703 393 1123 563 66 27 122 52 125 56 3 5 -60 34 -140
66 -417 167 -773 343 -1065 525 -71 45 -132 82 -135 83 -3 1 -27 -14 -55 -33z"/>
</g>
</svg>
